<svg xmlns="http://www.w3.org/2000/svg" viewBox="0 0 380 80" width="380" height="80" fill="none"><g transform="translate(8,12) scale(0.56)"><defs><linearGradient id="scope8sd" x1="0" y1="0" x2="1" y2="1"><stop offset="0" stop-color="#0FB6A8"/><stop offset="1" stop-color="#22D3EE"/></linearGradient><radialGradient id="scope8sdb" gradientUnits="userSpaceOnUse" cx="50" cy="50" r="44"><stop offset="0" stop-color="#0FB6A8" stop-opacity="0.5"/><stop offset="0.7" stop-color="#0FB6A8" stop-opacity="0.16"/><stop offset="1" stop-color="#0FB6A8" stop-opacity="0"/></radialGradient><clipPath id="z8"><circle cx="50" cy="50" r="40"/></clipPath></defs><circle cx="50" cy="50" r="40" stroke="#FFFFFF" stroke-width="7"/><path d="M50 50 L 50.0 10.0 A 40 40 0 0 1 89.4 43.1 Z" fill="url(#scope8sdb)"/><g clip-path="url(#z8)" stroke="#FFFFFF" stroke-width="2.4" opacity="0.26"><line x1="94.0" y1="50.0" x2="6.0" y2="50.0"/><line x1="81.1" y1="81.1" x2="18.9" y2="18.9"/><line x1="50.0" y1="94.0" x2="50.0" y2="6.0"/><line x1="18.9" y1="81.1" x2="81.1" y2="18.9"/></g><g clip-path="url(#z8)" stroke="#9FD9D5" stroke-width="1.8" opacity="0.7" fill="none"><circle cx="50" cy="50" r="27"/><circle cx="50" cy="50" r="14"/></g><circle cx="65.9" cy="24.6" r="18.5" stroke="#22D3EE" stroke-width="3.23" opacity="0.28"/><circle cx="65.9" cy="24.6" r="13.8" stroke="#22D3EE" stroke-width="3.23" opacity="0.55"/><circle cx="65.9" cy="24.6" r="9.5" fill="#22D3EE"/><circle cx="30.9" cy="61.0" r="7.3" stroke="url(#scope8sd)" stroke-width="2.00" opacity="0.42"/><circle cx="30.9" cy="61.0" r="4.3" fill="url(#scope8sd)"/><circle cx="77.0" cy="68.9" r="11.0" stroke="url(#scope8sd)" stroke-width="2.73" opacity="0.42"/><circle cx="77.0" cy="68.9" r="6.5" fill="url(#scope8sd)"/><circle cx="50" cy="50" r="4" fill="#FFFFFF"/></g><text x="82" y="52" font-family="Inter, Helvetica, Arial, sans-serif" font-weight="700" font-size="42" letter-spacing="-1.2" fill="#FFFFFF">observ<tspan fill="#0FB6A8">o</tspan>l</text></svg>